# xmcd CD database file
#
# Track frame offsets:
#	150
#	18625
#	30925
#
# Disc length: 658 seconds
#
# Revision: 0
# Processed by: cddbd v1.5PL3 Copyright (c) Steve Scherf et al.
# Submitted via: CDex 1.51
#
DISCID=17029003
DTITLE=Galla - ナツノカケラ
DYEAR=1999
DGENRE=JPop
TTITLE0=ナツノカケラ
TTITLE1=NO WAY OUT
TTITLE2=ナツノカケラ (instrumental)
EXTD=YEAR: 1999
EXTT0=
EXTT1=
EXTT2=
PLAYORDER=
